<?xml version="1.0" encoding="utf-8"?>
<!-- Generator: Adobe Illustrator 17.0.0, SVG Export Plug-In . SVG Version: 6.00 Build 0)  -->
<!DOCTYPE svg PUBLIC "-//W3C//DTD SVG 1.1//EN" "http://www.w3.org/Graphics/SVG/1.1/DTD/svg11.dtd">
<svg version="1.1" id="Layer_1" xmlns="http://www.w3.org/2000/svg" xmlns:xlink="http://www.w3.org/1999/xlink" x="0px" y="0px"
	 width="108px" height="108px" viewBox="0 0 108 108" enable-background="new 0 0 108 108" xml:space="preserve">
<g>
	<path fill="#8BC53F" d="M81.451,67.761c0.327-9.969-3.607-24.122-8.1-30.586c-9.329-13.425-29.576-17.32-38.314-8.416
		c-1.617,1.884-12.302-8.199-12.302-8.199l-4.902,2.614l12.178,10.88c0,0-15.229,23.685,17.888,48.086
		c11.221,8.268,27.165,4.985,42.268,2.615C90.167,84.755,80.99,81.882,81.451,67.761z M75.258,77.871
		c-0.106,0.064-0.225,0.097-0.342,0.097c-0.19,0-0.379-0.084-0.507-0.241c-0.021-0.021-10.136-12.401-19.812-23.311
		C43.655,42.083,41.286,38.505,41.253,38.458c-0.161-0.244-0.14-0.564,0.049-0.786c0.192-0.224,0.505-0.291,0.771-0.169
		c0.045,0.024,8.8,4.064,17.154,12.779c8.078,8.452,16.262,26.734,16.286,26.764C75.647,77.346,75.537,77.698,75.258,77.871z"/>
</g>
</svg>
